<svg id="8e06a5aa-21d0-49b6-8371-14f4389cc900" data-name="Layer 1" xmlns="http://www.w3.org/2000/svg" viewBox="0 0 1920 1205"><defs><style>.e79a5f78-30a6-45a1-b254-c3d43d8fdd2d{fill:#fff;}</style></defs><title>invert_grid</title><path class="e79a5f78-30a6-45a1-b254-c3d43d8fdd2d" d="M-653-206H1267q0,602.5,0,1205H-653Q-653,396.5-653-206ZM702.87,126.66c-.71-6.37-1.27-12.83-2.19-19.23-1.43-10-3.15-20-4.66-30-2.09-13.9-3.89-27.85-6.21-41.71-2.71-16.24-6.08-32.38-8.73-48.63-2.95-18.06-5.48-36.19-8-54.32-.38-2.72-1.24-3.52-3.93-3.84-9.9-1.19-19.76-2.71-29.63-4.15C628.69-76.8,617.88-78.56,607-80c-9.6-1.23-19.24-2.12-28.88-3.1-13.23-1.35-26.45-3.4-39.7-3.69-9.92-.22-19.89,1.82-29.83,2.95-5.9.67-9.81,3.65-10.54,9.86-.44,3.75-1.25,7.55-1,11.27,1.11,15.58,2.18,31.17,4,46.68,1.88,16.06,4,32.15,7.13,48,4,20.43,9.17,40.64,13.84,60.94.57,2.47,1.62,4,4.65,4.52,11.53,2.11,22.94,4.84,34.45,7.08,15.21,3,30.43,5.8,45.7,8.41,11.44,2,22.94,3.51,34.43,5.17,11.65,1.68,23.32,3.26,35,4.87ZM-385.46,696c.51,11,1.14,21.38,1.42,31.77.47,17.26.65,34.53,1.06,51.79.18,7.6.67,15.2,1,22.8.69,17.87,1.33,35.73,2,53.6q.42,10.9,1,21.8c.12,2.19.5,4.11,3.55,4.28,16.64.9,33.27,2,49.91,2.94,13.7.76,27.39,1.72,41.1,1.93,21.49.32,43,.06,64.48.12,2.69,0,3.91-.88,4-3.73.11-4.27.6-8.54.94-12.8,1.33-16.9,2.71-33.8,4-50.7,1.07-14.13,2.17-28.26,3-42.4.85-14.86,1.37-29.73,2.06-44.6.06-1.3.5-2.59.51-3.89,0-10.51,0-21,0-31.64-2.48.2-5.88.72-9.27.7q-54.64-.41-109.28-1c-7.1-.08-14.2-.83-21.3-.91C-358.29,695.9-371.27,696-385.46,696Zm181-7.35c.85-15.21,2.11-30,2.34-44.77.15-9.78-1.35-19.58-1.8-29.39-.53-11.59-.42-23.21-1.14-34.79-1-16.58-2.52-33.14-3.93-49.7-.65-7.64-1.61-15.26-2.47-23.28-19.29-1.25-38.35-3.19-57.43-3.52-17.51-.3-35.06,1-52.58,1.83a165.74,165.74,0,0,0-48.67,10.05,9.41,9.41,0,0,0-4.73,4.66c-4.78,10.75-6,22.37-7,33.89-1.19,15-1.76,30-2.06,45.09-.56,27.92-.73,55.85-1.06,83.77,0,1.75,0,3.51,0,5.56C-324.36,687-264.49,692.74-204.5,688.66ZM996.5-45.58C996-38.25,995.36-31.33,995-24.4c-.76,16.19-1.37,32.39-2,48.59-.33,8.1-.64,16.2-1,24.3-.65,14.53-1.36,29.06-2,43.6-.38,8.76-.58,17.54-1,26.29-.34,6.46-1,12.91-1.43,18.63,14.06,0,27.81.11,41.56,0,7.77-.09,15.54-.48,23.29-1,13.81-.89,27.6-2,41.4-3,11.19-.75,22.4-1.24,33.59-2.07,6.81-.5,13.59-1.41,20.3-2.12.46-7.75.9-15,1.32-22.24.35-5.93.64-11.87,1-17.8q2-30.1,4-60.2c.64-9.54,1.73-19.06,1.9-28.6.31-17.82.09-35.65.09-54-2,0-3.61-.07-5.22,0-12.87.65-25.74,1.23-38.6,2-14.81.9-29.59,2.14-44.4,2.93-16.19.86-32.39,1.33-48.59,2.07C1011.62-46.63,1004.07-46.05,996.5-45.58ZM-53.94,878.11c.69-8.29,1.22-16,2-23.64,1.57-15.51,3.36-31,4.91-46.5,1.13-11.29,2.21-22.58,3-33.9,1.18-17.62,2-35.26,3.07-52.89.1-1.8.54-3.59.55-5.38.06-7.89,0-15.78,0-24-6.16.43-11.91,1-17.67,1.2-12.26.44-24.53.71-36.79,1-25.69.67-51.39,1.27-77.08,2-7.89.24-15.76.92-23.7,1.4-.79,13.43-1.56,26.76-2.35,40.08-.66,11.2-1.27,22.4-2,33.6-1,14.64-2,29.26-3,43.9-.73,11.19-1.25,22.4-2.06,33.59-.42,5.72-1.44,11.39-1.89,17.11-.55,7-.78,14-1.14,21,2.3-.31,3.9-.66,5.51-.73,8.93-.38,17.87-.62,26.79-1,12.87-.6,25.74-1.24,38.6-2,15.3-.91,30.6-2,45.9-3C-79.1,879.3-66.91,878.77-53.94,878.11ZM847,139.6c0-25.61.25-50-.08-74.39-.24-17.53-1.2-35.06-2-52.58q-.86-20.05-2-40.09c-.37-6.72-1-13.42-1.41-19.13L682-68.51a34.23,34.23,0,0,0,0,5.15C684-50.43,685.94-37.51,688-24.61c2.31,14.34,4.78,28.65,7.15,43q3.95,23.91,7.83,47.83c1.65,10.15,3.36,20.29,4.82,30.47,1.23,8.59,2.63,17.21,3,25.86.18,4.44,2.1,5.93,5.61,6.38,11.38,1.46,22.76,3,34.17,4,13.27,1.25,26.58,2.07,39.88,3.06q7.64.57,15.29,1.05C819.58,137.92,833.41,138.76,847,139.6ZM-203.09,507.41c1.11,9.86,2.3,18.59,3,27.36,1.18,14.12,2.33,28.25,3,42.39.68,14.58.75,29.19,1.07,43.78,0,2.16,0,4.33,0,6.5q0,23,0,46.09c0,5.1,0,10.21,0,15.82,3.8-.52,6.87-1.17,10-1.31,9.93-.45,19.86-.7,29.79-1,9.43-.32,18.86-.73,28.29-1,14.43-.39,28.86-.68,43.29-1q21.89-.51,43.79-1a2.49,2.49,0,0,0,.89-.2c0-22.62.25-45-.09-67.36-.23-15.54-1.19-31.07-2-46.59-.54-10.7-1.25-21.4-2-32.09-.31-4.21-1-8.39-1.52-12.6Zm157.93,370.1c12.52-.88,24-1.88,35.56-2.46,17-.85,34.07-1.58,51.11-2,13-.32,26,.1,39-.13,7.38-.13,14.75-.9,22-1.38.49-6.55,1.18-12.95,1.42-19.35.48-12.6.78-25.2,1-37.8.4-20.6.79-41.2,1-61.8.16-17.66,0-35.33,0-53,0-1.44-.18-2.88-.33-5.15l-136.93-3.21c-1,17.68-1.85,33.86-2.73,50-.67,12.2-1.31,24.41-2,36.61-.25,4.27-.63,8.54-1,12.8-1.29,13.74-2.56,27.48-4,41.21-.85,8.32-2,16.6-2.83,24.92C-44.47,863.34-44.7,869.91-45.16,877.51Zm427-649.77,167.58,27.92c-2-12.2-3.34-23.21-5.63-34q-7-33-14.8-65.74c-3.91-16.45-8.29-32.8-12.71-49.12a6.55,6.55,0,0,0-4-3.71c-9.71-2.73-19.5-5.17-29.29-7.6-18.32-4.55-36.6-9.27-55-13.48-17.3-4-34.71-7.45-52.13-10.88-7-1.38-14.1-2.06-22.41-3.24Zm174.49,178c-1.78-.25-3.49-.63-5.22-.71q-22.8-1.05-45.61-2c-16.2-.69-32.4-1.43-48.61-2-13.93-.47-27.87-.69-41.8-1-.82,0-1.64-.17-2.47-.22l-19-1.11c.51,10.82,1.39,20.71,1.36,30.59-.06,21.77-.79,43.54-.84,65.31,0,15.6.54,31.2,1,46.8.15,5.73.63,11.45,1,17.39,50.84,2.28,101.19,5.58,151.63,2.9.81-10.12,1.66-20,2.36-29.81q1.6-22.7,3-45.41c.74-11.87,1.51-23.73,2-35.61.52-13.43.71-26.87,1.05-40.3C556,409.23,556.15,407.94,556.28,405.73ZM386.86,390c-1.28-25.67-2.09-51.64-4-77.52-1.89-25.68-4.88-51.27-7.41-77.22a1167.94,1167.94,0,0,0-151.9-15.55c.86,11.23,1.72,21.41,2.41,31.59q1.13,16.55,2,33.11,1.57,28.7,3,57.41c.46,9.43.59,18.87,1.06,28.3.33,6.54,1,13.07,1.43,18.9,12.44,0,24.69-.13,36.93,0,14.94.19,29.87.81,44.8.91C338.61,390.11,362,390,386.86,390ZM-533.4,699c-.55,20.49-1.13,40.18-1.55,59.88-.07,3.26.69,6.53.93,9.8,1,14.47,1.65,29,3.1,43.4,1.59,15.79,3.83,31.53,6.06,47.25.24,1.69,2,4.07,3.53,4.55,19.25,6,39.16,8.71,59.09,11.07,12.08,1.43,24.26,2,36.39,3.12,5.22.47,10.4,1.41,15.62,1.8,7.65.57,15.32.83,23.73,1.26-.88-12.43-1.84-23.93-2.46-35.45-.82-15.36-1.54-30.73-2-46.11-.52-17.6-.7-35.2-1-52.8q-.49-24.4-1-48.8a8.25,8.25,0,0,0-.56-1.93c-10.17,0-20.16-.08-30.15,0-30.27.29-60.54.56-90.8,1.06C-520.57,697.18-526.57,698.25-533.4,699ZM113,695.51c.4,4.08,1,7.14.94,10.19-.23,15.94-.71,31.87-.93,47.8-.41,29.93-.65,59.87-1.06,89.8-.08,5.94-.69,11.87-.93,17.81-.14,3.57,0,7.16,0,11.89,16.56,0,32.32-.13,48.08,0,14.94.16,29.87.65,44.8,1q25.9.54,51.8,1c1,0,2.08.19,3.43.31a44,44,0,0,1-1.09-6c-.73-20.53-1.34-41.07-2.06-61.61-.22-6.27-.5-12.55-1-18.8-1.23-14.58-2.66-29.14-3.94-43.72-1-11.92-2-23.85-3-36.37ZM988.52-46.36c-3.93.57-6.65,1.22-9.38,1.32-16.38.61-32.75-.43-49.17.81-11.36.86-22.88-.4-34.33-.78-8.26-.27-16.52-.75-24.79-.95-6.84-.16-13.68,0-20.85,0,0,.95-.08,2.26,0,3.57C851-28.63,852.12-14.84,853-1s1.47,27.72,2,41.58c.47,11.92.89,23.85,1,35.78.16,19.32,0,38.64,0,58v5H978.54A56.2,56.2,0,0,0,980,132.4q1.13-16,2-32.09c.71-12.36,1.47-24.72,2-37.09s.69-24.52,1-36.78q.47-16.39,1-32.78c0-.5,0-1,.06-1.5C986.86-20.32,987.65-32.81,988.52-46.36ZM556,397.52a9.76,9.76,0,0,0,.83-1.56c-.18-29,1.36-58.07-1.82-87-1.54-14-2.62-28.11-4.19-42.14a5.3,5.3,0,0,0-3.44-3.6c-10-1.61-20.09-2.72-30.12-4.21-11-1.63-21.94-3.41-32.88-5.27-14.63-2.49-29.22-5.16-43.85-7.68q-20-3.45-40.05-6.75c-5.61-.92-11.25-1.64-16.95-2.47,2.19,17.53,4.58,34.49,6.33,51.52q2.15,20.87,3,41.88c.7,17.41.76,34.84,1.08,52.26.05,2.76,0,5.52,0,8,8.28.54,15.85,1.17,23.43,1.49q26.53,1.13,53.07,2c12.59.43,25.18.69,37.78,1l1.5.06ZM215.61,219c-2.06,0-3.87,0-5.67,0-33.7.66-67.4,1.24-101.1,2.05-10.16.25-20.31,1.16-30.84,1.78,0,2.31,0,3.94,0,5.57.33,16.27.61,32.53,1,48.8q.35,14.15,1,28.3c.23,4.93.58,9.88,1.16,14.78C82.36,330.21,83.76,340.1,85,350c1.07,8.62,1.9,17.28,3.23,25.86.19,1.22,2.47,2.66,4,3,3.17.75,6.5.79,9.76,1.2,13.16,1.63,26.3,3.52,39.5,4.84,10.5,1.05,21.06,1.42,31.59,2.09q23.7,1.5,47.41,3a37.07,37.07,0,0,0,4.51-.28c0-2.05.09-3.71,0-5.35-1-15.14-2-30.27-3-45.41-.75-12.36-1.37-24.73-2-37.1-1-19.8-2-39.61-3-59.41C216.6,234.84,216.1,227.26,215.61,219Zm17.91,179.11c.52,8.74,1,16.82,1.48,24.89q1,16.8,2,33.6,1.51,25.7,3,51.4c.69,12,1.44,24.06,1.94,36.1.13,3.16,1.46,3.81,4.29,4,9.38.49,18.73,1.29,28.1,1.92q22.95,1.54,45.9,3c10.2.67,20.4,1.24,30.59,2,5.72.45,11.39,1.58,17.11,1.86,6.61.33,13.25.08,18.64.08V398.11ZM1146,137.76c-5.64.39-11.69.84-17.73,1.24-10.53.69-21.07,1.31-31.59,2-18.57,1.29-37.12,3-55.7,3.86-17.41.82-34.85.79-52.28,1.16a6.52,6.52,0,0,0-1.56.49,1002,1002,0,0,0-2,132.06c8.81,1.19,16.91,2.53,25.05,3.33,12.44,1.22,24.91,2.33,37.39,3,17.52.93,35.06,1.43,52.59,2.06,5.48.2,11,.28,16.44.31,9.37,0,18.74,0,28.17,0a11,11,0,0,0,.2-1.45q.52-50.92,1-101.83C1146.1,168.95,1146,153.86,1146,137.76ZM709.77,266.31a859.57,859.57,0,0,0-6-131.18c-59.63-7.45-118.92-15.47-177.75-29.25a28.7,28.7,0,0,0,.39,3.9c1.49,5.83,3.16,11.61,4.59,17.46,5,20.55,10.18,41.06,14.85,61.69,2.81,12.39,4.84,25,7.17,37.47,1.7,9.13,3.24,18.3,5.08,27.41.24,1.21,1.76,3,2.84,3.08,17.48,1.84,35,3.66,52.48,5.06,12.67,1,25.39,1.49,38.09,2C670.79,264.82,690.09,265.53,709.77,266.31ZM396,566.71c0,3.18-.11,5.34,0,7.49.62,10,1.32,20.06,2,30.09.68,10.53,1.37,21.06,2,31.59q1.56,27.19,3,54.38c.45,8.76.67,17.53,1,26.29.1,2.46.63,4.31,3.85,4.57,9.64.79,19.23,2.12,28.87,2.82,12.51.9,25.05,1.84,37.58,1.95,15.75.13,31.52-.41,47.27-1,5.71-.2,11.4-1.25,17.08-2,3.32-.42,5-2.45,5.31-5.75,1-12.13,2.37-24.24,2.92-36.39.71-15.41.92-30.85,1.05-46.27.17-20,0-40,0-60,0-1.43-.18-2.87-.32-5-9.1.49-17.83,1.34-26.56,1.33-14.76,0-29.52-.59-44.28-.91l-46.78-1c-.82,0-1.64-.15-2.47-.21ZM841-55.44c0-2.51.08-4,0-5.47-1-15.64-2-31.27-3-46.91-.71-11.53-1.42-23.07-2-34.61-.74-14.86-1.3-29.74-2.05-44.6-.25-4.89-.84-9.76-1.28-14.66H668l12,123.93ZM564.76,405.74c-.28,5.51-.52,10.26-.77,15-.32,6.1-.67,12.2-1,18.3q-1.52,29.44-3,58.88c-.39,7.93-.53,15.87-1.06,23.79-.43,6.38-1.53,12.72-1.86,19.11-.33,6.53-.07,13.1-.07,19.36H700c0-10.18-.19-19.54,0-28.88.55-22.53,1.29-45,2-67.57.31-10.1.66-20.19,1-30.29,0-.65.21-1.3.25-2,.53-8.33,1-16.66,1.6-25.73ZM389,566.62c-6-.66-10.39-1.3-14.8-1.59-11.53-.76-23.07-1.34-34.6-2.05-4.44-.27-8.87-.67-13.3-1q-23.86-2-47.71-3.94c-8.37-.68-16.73-1.39-25.11-1.93-3.41-.22-6.85,0-10.46,0,0,2.84-.14,5,0,7.15q1.93,25.11,4,50.21c.66,8.2,1.28,16.41,2.09,24.6,1.22,12.41,2.65,24.8,3.88,37.21.88,8.82,1.58,17.66,2.41,27L396,720.95c0-3.08.09-4.71,0-6.34-.64-10.37-1.32-20.74-2-31.11-.67-10.54-1.39-21.07-2-31.61-1.05-18.8-2.18-37.6-3-56.41C388.68,585.91,389,576.31,389,566.62Zm452.17-768.4a25.72,25.72,0,0,0-.14,3.12c.63,7.7,1.42,15.39,1.94,23.1.77,11.53,1.35,23.07,2,34.6,1,17.47,2.09,34.93,3,52.41.51,9.92.58,19.87,1.18,29.79.08,1.31,2,3.52,3.24,3.6,13.52.91,27.06,2,40.59,2.05,29.43,0,58.86-.57,88.29-.88,7.73-.08,7.83,0,7.72-7.59-.49-33.87,1.59-67.79-2-101.59-1.22-11.38-3.14-22.68-4.49-34-.48-4-2.36-4.89-6.18-4.88-43.49.14-87,.08-130.48.1C844.34-202,842.87-201.86,841.17-201.78ZM267,875.55c9.64.5,18.7,1.15,27.77,1.4,8.65.23,17.32-.15,26,.09,23.63.64,47-.77,69.69-8.09,1.6-.52,3.81-1.93,4.12-3.29,2.38-10.46,5.74-21,6.2-31.54,1.16-26.63-.14-53.28-2.66-79.85-.78-8.2-.8-16.48-1.17-24.8L256.38,710.93c.58,5.17,1.19,9.72,1.59,14.28,1.38,15.72,2.79,31.44,4,47.18,1.15,15.12,2.28,30.24,3,45.38.66,14.58.69,29.18,1.1,43.77C266.16,866.25,266.65,871,267,875.55ZM-46.52,516.92c-.52-7-.78-13.66-1.56-20.27-1.49-12.68-3.38-25.31-4.88-38s-2.62-25.46-4.1-38.17c-1.88-16.1-3.86-32.2-6-48.26-.39-2.89,0-6.84-4.78-7.23-7-.59-14.05-1.69-21.1-1.9-11-.33-22.07-.27-33.09,0-14.05.29-27.41,4.11-40.37,9.16-15.14,5.9-30.1,12.29-45.4,18.57-1,5.78-3,11.89-3,18,.11,14.87.77,29.76,1.95,44.58,1.14,14.37,3.12,28.67,5,43a5.35,5.35,0,0,0,3.53,3.52c4.36.76,8.84.79,13.27,1.19,11,1,21.94,1.86,32.88,3.09,13,1.46,26,3.36,39,4.86,10.27,1.19,20.6,1.93,30.87,3.12C-71.7,513.55-59.12,515.29-46.52,516.92ZM-31,683.82c1.48.08,2.29.16,3.11.17,26.41.34,52.83.62,79.24,1,12.43.19,24.85.57,37.28,1,5.34.19,10.67.77,15.38,1.12,0-14.73.26-28.63-.07-42.52-.38-16.2-1.23-32.39-2-48.57-.61-13.53-1.26-27.06-2-40.58-.25-4.39-1-8.76-1.46-13.19L-37.22,526c.45,3.1,1,5.78,1.19,8.48,1.05,13.29,2.26,26.57,3,39.88.91,17.34,1.68,34.71,2,52.07C-30.74,645.42-31,664.39-31,683.82ZM-204.78,242.64H-65.4V99.27H-204.78Zm167.32,275L97.73,533.78c-.28-5-.39-10-.88-15-1.19-12.08-2.6-24.13-3.84-36.2-.77-7.52-1.23-15.07-2.12-22.58-1.51-12.67-3.27-25.31-4.88-38-1.38-10.88-2.55-21.8-4.2-32.64a6.27,6.27,0,0,0-4-4.18C70.27,383.83,62.61,383.06,55,382c-9.87-1.39-19.74-2.86-29.61-4.29Q9.13,375.35-7.12,373c-9.22-1.32-18.44-2.69-27.67-3.89-6.59-.85-13.21-1.45-20.51-2.23ZM377.74-58.6V-201.67H238.38V-58.6ZM1156-63.32c-.37-2-.66-3.73-1-5.46-2.51-12.44-3.67-25.36-7.88-37.19-5.61-15.77-13.54-30.72-20.6-46-4.61-10-8.45-20.13-9.51-31.15-.59-6.19-1-12.39-1.52-18.61H990.43c9.57,49,5.7,98.32,6.66,147.84,2.67-.36,5.55-1,8.45-1.1,15.36-.74,30.73-1.21,46.08-2.08,14-.79,27.92-2.14,41.9-2.9,16.18-.88,32.39-1.33,48.58-2.09C1146.66-62.25,1151.22-62.87,1156-63.32ZM968.66,847.25V704.38H829.24V847.25ZM-213.19,99.86H-352.75V242.69h139.56Zm-148.16-8.09V-50.6H-500.73V91.78Zm591-151V-201.6H90.27V-59.22ZM81.77-201.65H-57.61V-59.26H81.77Zm-582.55,595.3H-361.4V251.27H-500.78Zm-8.57.13V251.39H-648.74V393.77ZM-204.78-59.35H-65.4V-201.74H-204.78Zm-148,151H-213.4V-50.73H-352.78Zm139.55-293.3H-352.61V-59.26h139.38Zm148,151H-204.59V91.73H-65.21ZM81.65,91.78V-50.6H-57.73V91.78ZM-500.79-59.37h139.38V-201.72H-500.79Zm-8.57,151.15V-50.59H-648.73V91.79Zm148.14,8.57H-500.6V242.74h139.38Zm-148,0H-648.61V242.74h139.38ZM-648.79-59.36h139.38V-201.73H-648.79Zm0,604H-509.4V402.27H-648.78ZM820.78,704.24c-1-.1-1.67-.23-2.31-.23q-65,0-129.95,0c-2.18,0-4.35.83-7,1.37V846.73H820.78ZM-352.81,394h6c27.82,0,55.65-.42,83.46.18a106.43,106.43,0,0,0,40.91-6.93c8.49-3.24,9.24-3.83,9.45-12.76,0-.5,0-1,0-1.5q0-58.73,0-117.45V250c-47,.16-93.36-.19-139.81.21Zm1330,302.14h138.57V553.3H977.19Zm285.46-.37V553.39H1124.26V695.77Zm-146.87,8.59H977.4V846.73h138.38Zm146.95,142.42V704.31H1124.36V846.78ZM843,418c-44.13-5.49-86.9-8.93-129.92-11.23-.74,10.22-1.63,19.4-2,28.6-.82,19.35-1.43,38.7-2,58.06-.41,12.92-.67,25.85-1,38.77,0,1-.5,1.93-.5,2.89,0,8.22,0,16.44,0,25.9H737c15.32,0,30.65.26,46-.07,17.27-.37,34.53-1.27,51.2-1.92C843,535,846.47,511.84,844.2,487.64c-1.42-15.15-.92-30.49-1.18-45.75C842.89,434.16,843,426.43,843,418ZM672.75,854.79H533.35v140h139.4ZM230-50.64H90.39V93h54.14q16,0,32,0a15.53,15.53,0,0,0,4-.24c9.4-2.54,18.82-5,28.14-7.84,4.78-1.44,11.5-2.14,13.61-5.52,4-6.4,7.28-14.43,7.44-21.86.75-34.63.33-69.28.33-103.93C230-47.71,230-49,230-50.64ZM344.76,67c-11.09,0-22.93-.29-34.75.07-16.29.5-31.88,4.78-47.35,9.58-7.91,2.45-16.08,4.1-24,6.65-3.75,1.21-8.93,2.82-10.3,5.74-5.08,10.79-8.5,22.38-8.3,34.46.32,20,1.32,40.06,1.86,60.1.24,8.91,0,17.84,0,27.72a1227.62,1227.62,0,0,1,150.73,14.89Zm336.6,787.69V994.75H820.69V854.68Zm147.86,140H968.6V855.26H829.22Zm433.41-449.89V403c-25.34,0-50.33.35-75.3-.12-18.25-.34-36.07,1.17-53.5,6.9-3,1-4.64,2-5.14,4.92-1.56,9-4.32,18-4.47,27-.55,32.49-.21,65-.21,97.49v5.6ZM1124.35,855.23V994.61h138.39V855.23ZM977.23,994.65h138.38V855.26H977.23ZM969,553c-5.63,0-10.6-.14-15.57,0-19,.61-38.11.56-57,2.23-14.24,1.26-28.2,5.67-42.44,7-11.37,1-16,6.8-18.09,16.93-1.94,9.52-6.22,18.85-6.53,28.36-.9,27.62-.32,55.29-.32,82.94v5.21a21.26,21.26,0,0,0,2.14.3c44.24.35,88.48.63,132.72,1.12,4.45,0,5.22-1.68,5.21-5.58q-.15-67-.06-133.92ZM224.68,398.24c-45.17-1.8-89.89-4.5-134.22-10.88l16.59,148.43L234,547.63c0-3.1.14-5.08,0-7-.59-7-1.41-14.05-1.92-21.09-.77-10.52-1.39-21.06-2-31.59-1-17.62-2.11-35.25-3-52.88-.52-10.42-.65-20.86-1.09-31.28A29.75,29.75,0,0,0,224.68,398.24ZM113,687.26l133.81,12.9a18.86,18.86,0,0,0,.15-3.39c-1.28-11.73-2.74-23.45-3.92-35.19-1.46-14.55-2.85-29.11-4-43.69-1.2-15.45-2-30.93-3.07-46.39-.37-5.39-1-10.76-1.43-15.73L106.82,544.23c.71,7.68,1.57,15.68,2.15,23.7.79,10.86,1.57,21.72,2,32.6.82,21.86,1.43,43.72,2,65.59C113.16,673.23,113,680.36,113,687.26ZM555,568.72c0,25,.26,48.93-.08,72.85-.3,21.54-1.22,43.07-1.95,64.61-.16,4.75-.65,9.48-1,14.4,41.22-7.21,80.93-20.57,121.46-22.89,2.86-12.41,5.26-24.38,8.43-36.15,3-11,7.26-21.63,10-32.67a328.66,328.66,0,0,0,6.92-36.49c1-8,.19-16.14.19-23.67ZM851.51,276c-.54,6.86-1.22,13.08-1.47,19.32-.48,12.09-1,24.19-1,36.28.11,25.08.6,50.17.93,75.25,0,.33-.13.79,0,1,.94,1.09,1.8,2.78,3,3,3.18.71,6.51.71,9.76,1.16,8.58,1.19,17.13,2.53,25.71,3.7,10.86,1.48,21.72,3,32.62,4.23,8.17.92,16.38,1.44,24.58,2.09Q964.84,423.55,984,425a24.75,24.75,0,0,0,4-.36c0-1.51.08-2.67,0-3.82q-1.46-19.19-3-38.38c-.7-9-1.29-18.06-2.1-27.08-1.23-13.73-2.76-27.44-3.87-41.19-.64-7.9-.71-15.85-1.07-23.78-.11-2.48-.71-4.17-3.93-4.48-7-.65-13.89-2.19-20.88-2.81-17-1.53-34.1-2.77-51.16-4.06-6.25-.47-12.53-.7-18.79-1.08C872.71,277.31,862.19,276.65,851.51,276ZM996.46,426.41c6.61-.48,13-.86,19.39-1.42,10.64-.93,21.29-1.71,31.89-3,23.52-2.92,46.17-9.7,69-15.81,5.58-1.5,8.07-4.82,10-9.47.93-2.26,2-4.46,2.83-6.76,3.88-10.69,8.33-21.23,11.34-32.16,2.1-7.65,2.77-15.83,3.08-23.81.49-12.51.13-25.06.13-37.54-10.27-.46-20.84-1-31.41-1.4-11.26-.41-22.54-.52-33.8-1-18.48-.87-37-1.81-55.41-3-12.39-.82-24.74-2.17-37.46-3.31,0,1.43-.1,3.08,0,4.72q1.45,19.71,3,39.41c.69,9,1.29,18.07,2.1,27.09,1.23,13.74,2.72,27.46,3.87,41.21C995.66,408.46,995.93,416.89,996.46,426.41ZM559.08,265.27c6.91,44.34,6.05,88.47,5.89,132.33h139.6c.52-3.85,1.21-7.25,1.39-10.68.76-15,1.52-30,2-45.07.51-15.75.62-31.51,1.08-47.27.19-6.38.85-12.75,1.29-19.11-3.36-.58-5.9-1.24-8.48-1.43-10.35-.76-20.71-1.5-31.08-2-16.52-.79-33-1.37-49.57-2-8.26-.34-16.53-.51-24.78-1.06-5.72-.38-11.39-1.33-17.1-1.9C572.69,266.38,566,265.87,559.08,265.27Zm596.55-136.13c4-.45,7-1,10-1.1,9.59-.42,19.19-.66,28.78-1.05,5.93-.25,11.87-.53,17.79-1,14.9-1.25,29.77-2.91,44.69-3.79,4.74-.28,6.18-1.38,6.16-6.21-.16-54.63-.1-109.25-.1-163.88v-4.95c-33.21-3.51-65.89-3.35-99-1.69.36,3,1,5.84,1,8.7-.14,7.6-.64,15.19-.93,22.79-.69,18.19-1.29,36.38-2,54.57-.58,14.36-1.29,28.72-2,43.08-.25,5.1-.64,10.2-1.05,15.29C1157.88,102.64,1156.79,115.41,1155.63,129.13ZM386,994.64H524.76V855c-9.69,0-19.15.27-28.59-.06a155.39,155.39,0,0,0-45.41,5.18c-14.3,3.79-28.26,8.81-42.55,12.64-5.76,1.54-9.58,3.91-10.6,10-.15.92-1,1.7-1.32,2.62-3.45,10.65-9.2,21.19-9.82,32C385,942.94,386,968.64,386,994.64ZM-532.4,690c3,0,5.18.11,7.32,0,10.53-.62,21.05-1.8,31.59-1.88,31.65-.25,63.3-.09,95-.09H-392c0-17.94-.13-35.18,0-52.42.18-19.09.58-38.19,1-57.28.21-9.6.51-19.2,1-28.79a114.41,114.41,0,0,1,1.77-12.11c.94-5.72,2-11.42,3-17.21a4.56,4.56,0,0,0-1.25,0c-16.87,6.43-33.71,12.95-50.61,19.31-15,5.63-30,11-46.06,12.55-5.86.58-11.74,1-16.39,1.34-3.35,14.75-6.24,29.12-9.92,43.29-3.8,14.63-8.83,28.94-12.44,43.61C-525.87,656.57-528.86,673.07-532.4,690ZM70.35,214.75c1.36-6.45,2.31-13.29,4.29-19.82,5-16.43,8.59-32.9,7.52-50.32-.82-13.45-.16-27-.17-40.48,0-1.61-.14-3.21-.22-4.76H-57.75V243c1.7,0,3.17-.1,4.61,0,20.42,1.59,39.54-4.5,58.76-9.92Q38,224,70.35,214.75ZM-648.66,854V994.67h139.95c-.47-3-.94-5.52-1.27-8.1-1.69-13.14-2.65-26.42-5.15-39.4-4.83-25.08-10.49-50-15.95-75a5.36,5.36,0,0,0-2.84-3.18c-20-8.47-41.27-12.27-62.53-14.64C-613.54,852.48-631,854-648.66,854Zm-.12-158c2.4,0,4.22,0,6,0,22.26-.33,44.53-.4,66.78-1.11,10.65-.34,21.27-1.84,31.88-3,3.28-.36,4.56-2.73,5.12-5.94,2.75-15.73,4.94-31.62,8.74-47.1,5.26-21.46,11.93-42.58,17.68-63.93,1.88-7,2.77-14.21,4.15-21.56h-140.4ZM550.64,729.36c-1.81,8.91-3.44,17.4-5.28,25.85-2.71,12.4-5.86,24.72-8.28,37.17a187.45,187.45,0,0,0-3.29,25.29c-.56,10-.13,20.1-.13,29.48H673.35V705.75C631.5,709.1,591.65,722.6,550.64,729.36ZM-500.76,544.56c9.59,2,28.52-1.86,42.67-6.74,21.22-7.32,42-16.06,63.25-23.14,10.54-3.5,17.61-9.1,23-18.92,6.33-11.52,11.91-22.43,11.09-36.32-1-17.27-.24-34.64-.24-52v-5.22H-500.76Zm854.16-485c54.25,6.33,106.58,21,159.54,34.46a16,16,0,0,0,0-3c-2.94-12.34-6.4-24.58-8.8-37-3.75-19.37-7.25-38.81-10-58.34-2.34-16.72-3.68-33.6-5-50.45-.6-7.52-.1-15.12-.1-23-11.27,4.9-23.09,9.9-34.79,15.16-16,7.2-32,14.13-50.36,11.69-4.58-.61-9.32-.12-14-.07-1.25,0-2.51.24-3.87.38,0,9.08.07,17.74-.06,26.39a9.48,9.48,0,0,1-1.31,5C378.24-9.93,371.52-.88,365.16,8.4,357.42,19.71,350.34,31.33,352,46,352.49,50.38,352.91,54.8,353.4,59.59ZM99.49,994.78c.52-8.94,1.24-17.5,1.46-26.06.48-19.26.72-38.52,1-57.78.09-5.15.08-10.3.29-15.45s.63-10.08,1-15.93c-5.85.54-10.73,1.26-15.62,1.38-17.76.46-35.52.66-53.28,1.08-7.6.18-15.2.65-22.8,1-16.2.68-32.39,1.31-48.59,2a30.35,30.35,0,0,0-7.24,1.09,4.28,4.28,0,0,0-2.66,2.76Q-48.64,906.3-50,923.76c-.81,10.69-1.28,21.4-2.07,32.09-.47,6.38-1.55,12.72-1.87,19.11S-54,988-54,994.78Zm286.75-1053c18.07.36,35.62,1.31,52.5-6.91,16.37-8,33.53-14.33,50.3-21.5,2.13-.91,4.72-1.94,5.88-3.71,7.77-11.87,15.51-23.79,22.61-36.07,3.17-5.48,7.88-10.17,7.64-17.66-.56-17.48-.18-35-.18-52.48v-5.26H386.25ZM-58,250c0,4.2.11,7.84,0,11.47-.62,17.23-1.9,34.46-1.8,51.68.09,14.79,1.72,29.57,2.68,44.57l137.24,19c-.73-4.74-1.56-9.19-2.07-13.68-2.07-18.42-4.6-36.82-5.87-55.3C70.8,288,70.6,268.05,70,248.18c-.22-7.62,0-15.26,0-23.52-3.78.71-7,1.06-10.1,1.93-20,5.61-40,11.45-60.1,17-14.57,4-29.19,7.84-44.59,6.48C-48.91,249.69-53.09,250-58,250ZM107.64,994.15c1.12.51,1.4.75,1.69.75q66,.07,132,0a4.65,4.65,0,0,0,3.55-1.82c2.91-5.63,6.7-11.17,8-17.2,2.5-12,3.8-24.2,5.09-36.38.64-6.1.17-12.32.18-18.48,0-12.22,0-24.44,0-37.21-12.06-.59-24.56-1.28-37.07-1.8-10.43-.44-20.86-.82-31.3-1-24.76-.42-49.52-.7-74.29-1-1.42,0-2.85.18-5.42.36,0,12.49.12,24.58,0,36.68-.23,18.27-.64,36.53-1,54.79,0,.67,0,1.33-.06,2C108.5,980.72,108.06,987.59,107.64,994.15Zm1155-1056.65V-201.6H1124.16c0,4.56-.49,8.78.09,12.86,2.29,16.35,8.8,31.26,16.27,45.82,3.64,7.1,7.3,14.21,10.43,21.54,7.91,18.46,11.76,37.92,13.16,57.32ZM713,137.91c0,1.46-.15,3.27,0,5.06,1.28,13.56,2.95,27.1,3.85,40.69.8,12.06.93,24.18,1.08,36.27.17,14,0,28,0,42,0,1.61.14,3.21.2,4.65,5,.51,9.58,1.38,14.15,1.39,35.64.11,71.28,0,106.92.13,3.54,0,4.59-1.52,4.73-4.66.62-14.19,1.46-28.38,1.94-42.58.51-14.75.71-29.51,1-44.27,0-1.16,0-2.33.08-3.49.43-8.53.87-17.06,1.26-24.5Zm5.48,137.78c-.48,6.22-1.17,12.59-1.44,19-.48,11.42-.73,22.85-1,34.27-.35,12.76-.66,25.51-1,38.27,0,1-.46,1.92-.51,2.89-.45,9.5-.85,19-1.27,28.59,8.91.45,17.48.86,26,1.31,6.1.32,12.2.55,18.29,1.06q22.35,1.86,44.67,4c7.82.75,15.6,1.91,23.41,2.74,5.32.57,10.66.88,16.39,1.34V275.69Zm434,12.31c18.17-1.41,35.33-1.86,52.22-4.27a138.65,138.65,0,0,0,55-20.42c2.74-1.74,3.36-3.27,3.35-6.11q-.1-61,0-121.93v-5.19c-5.08.34-9.63.6-14.18,1-17.06,1.31-34.12,2.78-51.19,3.92-9.41.63-18.86.62-28.28,1.1-4.71.24-9.39.95-14.79,1.52ZM-533.24,860.66c-8.14-54.08-12.19-107.07-7.67-159.36l-107.78,3.61V847.14C-609.64,846.88-570.54,844-533.24,860.66Zm318.46,134H-63.39l8.24-108.73a16.44,16.44,0,0,1-3.23,1C-75.17,888-92,889-108.76,890c-9.87.61-19.72,1.49-29.6,1.95-17.35.8-34.72,1.35-52.08,2.06-6.06.25-12.11.66-18.85,1ZM707,568c0,3.26-.07,6,0,8.83.54,17.54-1.14,34.84-6,51.71-4.63,15.93-9.86,31.69-14.45,47.63-1.81,6.3-2.6,12.89-3.88,19.47H821v-5.83c0-29,0-58,.05-87a31.45,31.45,0,0,1,1.19-8.21c2.54-9.17,5.31-18.28,7.74-26.59ZM-377,889.89c0,7.15-.39,13.43.08,19.64,1.08,14.41,2.3,28.83,4,43.18,1.45,12.49,3.74,24.88,5.35,37.35.56,4.38,2.69,5,6.6,5,44.64-.13,89.27-.08,133.91-.09,1.6,0,3.2-.14,4.26-.19l5.16-99.54c-.62-.06-1.58-.23-2.55-.24-25.25-.35-50.5-.62-75.75-1-11.43-.19-22.86-.56-34.28-1-5.76-.22-11.5-.83-17.26-1.2C-357.47,891.1-367.47,890.49-377,889.89ZM659.59-201.65H533c0,20.33.18,40.3-.15,60.27a28,28,0,0,1-3.33,12c-2.86,5.46-6.78,10.37-10.14,15.58-4.51,7-8.92,14.09-13.5,21.34,9.12-.91,17.44-2.69,25.68-2.37,17.75.69,35.48,2.3,53.19,3.84q18.37,1.6,36.67,4c16.76,2.27,33.47,4.95,49.76,7.39Zm458.76,615.59c-39.59,13-80.8,20.21-122.92,20.07-.6,6-.55,11.33-1.75,16.41-3.84,16.3-8.17,32.49-12.25,48.73a143.62,143.62,0,0,0-4.17,45.56H1116V539c0-29.32-.22-58.65.11-88C1116.24,438.81,1117.55,426.59,1118.35,413.94ZM-204.73,250.19V380.48c22.43-9,43.66-20,67.22-24.22,24.08-4.37,48.16-1.23,72.26.82-.28-4.89-.27-9.16-.8-13.35a292.64,292.64,0,0,1-1.89-53.16c.2-3.57,1.2-7.1,1.47-10.68.74-9.81,1.29-19.63,1.93-29.7ZM978.9,147.84H856.51c-.53,9.59-1.1,18.32-1.49,27.07-.42,9.6-.68,19.2-1,28.8q-1,28.05-2,56.1c-.09,2.57-.28,5.13-.41,7.51l125.57,9.39c-.34-4.21-1.08-9.27-1.09-14.33C975.95,224.08,975.36,185.77,978.9,147.84ZM845.35,555.94C886,545.58,927.14,543.8,969,545.26c0-5-.23-9.33,0-13.6.57-8.69.54-17.55,2.33-26,3.13-14.77,7.7-29.23,11.17-43.93,2.19-9.26,3.49-18.74,5.26-28.49-47.13-1-92.27-8.25-136.81-14.32,0,5-.06,9.24,0,13.48q.46,27.63,1,55.26c0,.83.09,1.66.08,2.49-.13,11.84.48,23.76-.64,35.51C850.5,535.59,847.56,545.34,845.35,555.94ZM404.64,729.87c.51,3.88,1.12,7.05,1.32,10.25,1.07,17.12,2.83,34.24,2.85,51.37,0,24.44,2.76,49.12-4.66,72.9,19.72-5.18,38.89-12.14,58.65-14.87,20.35-2.82,41.27-1.52,63.2-2.06,0-12.07-.61-24,.18-35.87a232.37,232.37,0,0,1,4.63-31c3.38-16.48,7.37-32.83,11.19-49.6-2,0-3.38-.12-4.68,0-9,1-17.9,2.72-26.86,2.79-20.58.15-41.17-.38-61.75-.92-6.88-.18-13.72-1.38-20.6-1.87C420.59,730.52,413,730.28,404.64,729.87ZM-386.29,889.54c-45.59-3.63-91.09-5.31-135.88-16.55,7.93,41,20,80.35,21.1,121.73h125.8C-382.61,959.92-383.28,924.7-386.29,889.54ZM215.4,211c-.52-4.58-1.18-8.45-1.36-12.35-.76-16.69-1.48-33.38-2-50.08-.26-8.32-.42-16.68.07-25A197.45,197.45,0,0,1,215,102.26c.63-3.7,2-7.29,3-11.23-4.84,1.32-9,2.48-13.27,3.61-14.26,3.8-28.46,8-43.52,6.37a107.51,107.51,0,0,0-10.8-1c-18.65-.1-37.31-.05-56,0-1.43,0-2.85.18-4.47.3,0,17.75-.49,35.08.15,52.36.52,14.23-2.16,27.67-6.39,41.07-2.15,6.82-3.37,13.93-5.07,21.18,7.11-.71,13.11-1.63,19.15-1.86,21.52-.81,43-1.6,64.57-2C179.71,210.75,197,211,215.4,211ZM238-50.8V-45q0,50.21,0,100.42c0,5.25.64,10.57-2.8,15.28-.9,1.24-.77,3.24-1.37,6.08,36.51-12.65,72.53-22.42,111.34-17.91-.3-2.3-.6-4.19-.77-6.09-1.18-13.1-1.31-26.17,6.13-37.71,7.68-11.92,16-23.44,24-35.14,1.19-1.74,3.2-3.49,3.28-5.3.35-8.42.16-16.87.16-25.49ZM-217.58,394.09c-17.22,8.27-34.8,8.11-52.45,8-25.83-.22-51.66-.06-77.49-.06H-353c0,22.89.33,45-.21,67.18-.15,6.32-2.16,12.83-4.5,18.79-2.25,5.72-6,10.82-9.39,16.59,51.56-13.82,103.28-9.83,154.69-6.26C-215.15,463.81-221.93,429.88-217.58,394.09ZM378,994.89v-5.84c0-21.49.14-43-.06-64.46a73.88,73.88,0,0,1,4.75-27.91c2.21-5.67,4.33-11.38,6.93-18.23-41.06,10.48-81.73,5.8-121.95,5.62-.9,23.81-1.64,47.13-2.76,70.43a101.16,101.16,0,0,1-2.8,19.87c-1.77,7-4.73,13.68-7.19,20.53ZM1262.7,395V271.45c-33.89,21.42-71.38,23.7-108.8,23.64-1,18.45-1.78,36.43-2.91,54.39-1.15,18.17-9.38,34.25-16.81,51.56a141.65,141.65,0,0,1,46.25-6.14c15.65.41,31.31.09,47,.09Z" transform="translate(653 206)"/><path d="M702.87,126.66,676.28,123c-11.66-1.62-23.33-3.19-35-4.87-11.49-1.65-23-3.21-34.43-5.17-15.27-2.61-30.5-5.46-45.7-8.41-11.51-2.23-22.92-5-34.45-7.08-3-.55-4.08-2.05-4.65-4.52-4.68-20.3-9.81-40.51-13.84-60.94C505.1,16.15,503,.07,501.1-16c-1.82-15.5-2.89-31.1-4-46.68-.27-3.71.54-7.52,1-11.27.73-6.21,4.64-9.2,10.54-9.86,9.94-1.12,19.91-3.16,29.83-2.95,13.25.29,26.47,2.35,39.7,3.69,9.63,1,19.28,1.87,28.88,3.1,10.86,1.4,21.67,3.15,32.51,4.72,9.87,1.43,19.73,3,29.63,4.15,2.68.32,3.55,1.12,3.93,3.84,2.5,18.13,5,36.26,8,54.32,2.65,16.25,6,32.38,8.73,48.63,2.32,13.86,4.11,27.81,6.21,41.71,1.51,10,3.23,20,4.66,30C701.59,113.84,702.16,120.29,702.87,126.66Z" transform="translate(653 206)"/><path d="M-385.46,696c14.19,0,27.18-.11,40.16,0,7.1.08,14.2.83,21.3.91q54.64.62,109.28,1c3.39,0,6.79-.5,9.27-.7,0,10.61,0,21.12,0,31.64,0,1.3-.45,2.59-.51,3.89-.69,14.87-1.21,29.74-2.06,44.6-.81,14.15-1.91,28.28-3,42.4-1.28,16.91-2.65,33.8-4,50.7-.34,4.27-.83,8.53-.94,12.8-.07,2.85-1.29,3.74-4,3.73-21.49-.06-43,.21-64.48-.12-13.71-.21-27.41-1.17-41.1-1.93-16.64-.92-33.27-2-49.91-2.94-3-.16-3.43-2.08-3.55-4.28q-.6-10.89-1-21.8c-.7-17.86-1.33-35.73-2-53.6-.29-7.6-.78-15.2-1-22.8-.41-17.26-.6-34.53-1.06-51.79C-384.32,717.38-385,707-385.46,696Z" transform="translate(653 206)"/><path d="M-204.5,688.66c-60,4.08-119.87-1.67-180.5-.59,0-2.05,0-3.8,0-5.56.33-27.93.5-55.85,1.06-83.77.3-15,.88-30.1,2.06-45.09.91-11.52,2.18-23.14,7-33.89a9.41,9.41,0,0,1,4.73-4.66A165.74,165.74,0,0,1-321.51,505c17.52-.86,35.07-2.14,52.58-1.83,19.08.33,38.14,2.27,57.43,3.52.86,8,1.81,15.64,2.47,23.28,1.42,16.56,2.9,33.12,3.93,49.7.72,11.57.61,23.2,1.14,34.79.45,9.81,2,19.61,1.8,29.39C-202.38,658.67-203.65,673.44-204.5,688.66Z" transform="translate(653 206)"/><path d="M996.5-45.58c7.57-.47,15.12-1.05,22.68-1.4,16.19-.74,32.4-1.21,48.59-2.07,14.81-.79,29.6-2,44.4-2.93,12.86-.78,25.73-1.36,38.6-2,1.62-.08,3.24,0,5.22,0,0,18.35.22,36.18-.09,54-.16,9.54-1.26,19.07-1.9,28.6q-2,30.1-4,60.2c-.39,5.93-.68,11.86-1,17.8-.42,7.25-.86,14.49-1.32,22.24-6.71.72-13.49,1.62-20.3,2.12-11.19.82-22.4,1.31-33.59,2.07-13.8.93-27.59,2.06-41.4,3-7.75.5-15.53.89-23.29,1-13.75.16-27.5,0-41.56,0,.45-5.71,1.08-12.16,1.43-18.63.46-8.76.66-17.53,1-26.29.64-14.53,1.34-29.06,2-43.6.36-8.1.67-16.2,1-24.3.67-16.2,1.28-32.4,2-48.59C995.36-31.33,996-38.25,996.5-45.58Z" transform="translate(653 206)"/><path d="M-53.94,878.11c-13,.66-25.16,1.19-37.34,1.91-15.3.91-30.6,2-45.9,3-12.86.77-25.73,1.4-38.6,2-8.93.42-17.86.66-26.79,1-1.61.07-3.21.42-5.51.73.37-7,.6-14,1.14-21,.45-5.72,1.47-11.39,1.89-17.11.81-11.19,1.33-22.4,2.06-33.59,1-14.64,2-29.26,3-43.9.73-11.2,1.34-22.4,2-33.6.78-13.33,1.56-26.65,2.35-40.08,7.95-.48,15.82-1.17,23.7-1.4,25.69-.77,51.39-1.37,77.08-2,12.26-.32,24.53-.59,36.79-1,5.76-.21,11.51-.77,17.67-1.2,0,8.27,0,16.16,0,24,0,1.79-.45,3.58-.55,5.38-1,17.63-1.9,35.27-3.07,52.89-.75,11.31-1.84,22.61-3,33.9-1.55,15.51-3.34,31-4.91,46.5C-52.72,862.14-53.25,869.82-53.94,878.11Z" transform="translate(653 206)"/><path d="M847,139.6c-13.61-.84-27.44-1.68-41.27-2.55q-7.65-.48-15.29-1.05c-13.3-1-26.61-1.82-39.88-3.06-11.42-1.07-22.8-2.56-34.17-4-3.51-.45-5.43-1.94-5.61-6.38-.35-8.65-1.75-17.27-3-25.86-1.46-10.18-3.17-20.32-4.82-30.47q-3.88-23.92-7.83-47.83C692.8,4,690.32-10.27,688-24.61c-2.08-12.9-4-25.82-5.94-38.74a34.23,34.23,0,0,1,0-5.15L841.56-46.59c.43,5.71,1,12.41,1.41,19.13q1.12,20,2,40.09c.75,17.52,1.71,35.05,2,52.58C847.27,89.6,847,114,847,139.6Z" transform="translate(653 206)"/><path d="M-203.09,507.41l157.52,17.71c.52,4.21,1.21,8.39,1.52,12.6.78,10.69,1.49,21.39,2,32.09.78,15.52,1.74,31.05,2,46.59.33,22.37.09,44.75.09,67.36a2.49,2.49,0,0,1-.89.2q-21.89.54-43.79,1c-14.43.34-28.86.63-43.29,1-9.43.25-18.86.66-28.29,1-9.93.34-19.87.6-29.79,1-3.09.14-6.15.79-10,1.31,0-5.61,0-10.72,0-15.82q0-23,0-46.09c0-2.17,0-4.33,0-6.5-.32-14.6-.4-29.2-1.07-43.78-.66-14.15-1.81-28.28-3-42.39C-200.79,526-202,517.27-203.09,507.41Z" transform="translate(653 206)"/><path d="M-45.16,877.51c.46-7.6.69-14.17,1.31-20.69.79-8.32,2-16.6,2.83-24.92,1.4-13.73,2.67-27.47,4-41.21.4-4.26.78-8.53,1-12.8.71-12.2,1.36-24.4,2-36.61.89-16.18,1.77-32.36,2.73-50l136.93,3.21c.15,2.27.33,3.71.33,5.15,0,17.67.14,35.33,0,53-.19,20.6-.59,41.2-1,61.8-.24,12.6-.55,25.21-1,37.8-.24,6.41-.92,12.8-1.42,19.35-7.29.48-14.66,1.25-22,1.38-13,.23-26-.19-39,.13-17,.41-34.08,1.14-51.11,2C-21.13,875.62-32.64,876.63-45.16,877.51Z" transform="translate(653 206)"/><path d="M381.79,227.74,353.39,67.88c8.31,1.18,15.43,1.86,22.41,3.24C393.21,74.55,410.63,78,427.93,82c18.4,4.2,36.68,8.92,55,13.48,9.79,2.43,19.58,4.87,29.29,7.6a6.55,6.55,0,0,1,4,3.71c4.42,16.33,8.8,32.67,12.71,49.12q7.78,32.78,14.8,65.74c2.29,10.81,3.64,21.81,5.63,34Z" transform="translate(653 206)"/><path d="M556.28,405.73c-.13,2.21-.24,3.5-.27,4.8-.34,13.43-.53,26.88-1.05,40.3-.46,11.88-1.24,23.75-2,35.61q-1.41,22.71-3,45.41c-.69,9.85-1.55,19.68-2.36,29.81-50.44,2.68-100.79-.62-151.63-2.9-.34-5.93-.81-11.65-1-17.39-.42-15.6-1-31.2-1-46.8,0-21.77.78-43.54.84-65.31,0-9.89-.85-19.77-1.36-30.59l19,1.11c.82,0,1.64.19,2.47.22,13.93.34,27.87.57,41.8,1,16.21.55,32.41,1.29,48.61,2q22.81,1,45.61,2C552.79,405.1,554.5,405.48,556.28,405.73Z" transform="translate(653 206)"/><path d="M386.86,390c-24.84,0-48.25.12-71.66,0-14.94-.1-29.87-.72-44.8-.91-12.24-.16-24.48,0-36.93,0-.45-5.83-1.11-12.36-1.43-18.9-.47-9.43-.6-18.87-1.06-28.3q-1.4-28.71-3-57.41-.9-16.56-2-33.11c-.69-10.18-1.55-20.35-2.41-31.59a1167.94,1167.94,0,0,1,151.9,15.55c2.54,25.94,5.52,51.54,7.41,77.22C384.77,338.35,385.59,364.32,386.86,390Z" transform="translate(653 206)"/><path d="M-533.4,699c6.83-.71,12.83-1.79,18.85-1.89,30.26-.5,60.53-.77,90.8-1.06,10-.1,20,0,30.15,0a8.25,8.25,0,0,1,.56,1.93q.55,24.4,1,48.8c.35,17.6.52,35.21,1,52.8.46,15.38,1.18,30.75,2,46.11.62,11.52,1.59,23,2.46,35.45-8.4-.43-16.08-.69-23.73-1.26-5.22-.39-10.4-1.33-15.62-1.8-12.13-1.09-24.31-1.69-36.39-3.12-19.93-2.36-39.84-5.08-59.09-11.07-1.54-.48-3.29-2.85-3.53-4.55-2.23-15.72-4.48-31.45-6.06-47.25-1.45-14.42-2.07-28.93-3.1-43.4-.23-3.28-1-6.54-.93-9.8C-534.53,739.15-533.95,719.45-533.4,699Z" transform="translate(653 206)"/><path d="M113,695.51l135,13.28c1,12.52,2,24.45,3,36.37,1.28,14.58,2.71,29.14,3.94,43.72.53,6.25.81,12.53,1,18.8.72,20.53,1.33,41.07,2.06,61.61a44,44,0,0,0,1.09,6c-1.36-.13-2.39-.29-3.43-.31q-25.9-.52-51.8-1c-14.94-.31-29.87-.8-44.8-1-15.76-.17-31.52,0-48.08,0,0-4.74-.12-8.32,0-11.89.23-5.94.85-11.87.93-17.81.41-29.93.65-59.87,1.06-89.8.22-15.94.7-31.87.93-47.8C114,702.65,113.41,699.59,113,695.51Z" transform="translate(653 206)"/><path d="M988.52-46.36c-.86,13.55-1.66,26-2.45,38.53,0,.5,0,1-.06,1.5q-.5,16.39-1,32.78c-.35,12.26-.54,24.53-1,36.78S982.7,88,982,100.31q-.92,16-2,32.09a56.2,56.2,0,0,1-1.41,6.87H856v-5c0-19.32.12-38.64,0-58-.1-11.93-.51-23.86-1-35.78-.55-13.87-1.19-27.73-2-41.58S851-28.63,850-42.42c-.09-1.3,0-2.62,0-3.57,7.17,0,14-.13,20.85,0,8.27.19,16.52.67,24.79.95,11.45.38,23,1.64,34.33.78,16.41-1.24,32.79-.21,49.17-.81C981.87-45.14,984.59-45.79,988.52-46.36Z" transform="translate(653 206)"/><path d="M556,397.52l-46.26-2.46-1.5-.06c-12.59-.34-25.19-.6-37.78-1q-26.54-.9-53.07-2c-7.58-.32-15.14-1-23.43-1.49,0-2.49,0-5.25,0-8-.32-17.42-.38-34.86-1.08-52.26q-.85-21-3-41.88c-1.75-17-4.15-34-6.33-51.52,5.7.82,11.34,1.54,16.95,2.47q20,3.29,40.05,6.75c14.62,2.52,29.22,5.19,43.85,7.68,10.94,1.86,21.9,3.64,32.88,5.27,10,1.49,20.12,2.6,30.12,4.21a5.3,5.3,0,0,1,3.44,3.6c1.56,14,2.65,28.11,4.19,42.14,3.18,29,1.64,58,1.82,87A9.76,9.76,0,0,1,556,397.52Z" transform="translate(653 206)"/><path d="M215.61,219c.49,8.26,1,15.84,1.38,23.42,1,19.8,2,39.61,3,59.41.64,12.37,1.26,24.74,2,37.1.92,15.14,2,30.27,3,45.41.11,1.64,0,3.3,0,5.35a37.07,37.07,0,0,1-4.51.28q-23.71-1.44-47.41-3c-10.53-.67-21.1-1-31.59-2.09-13.19-1.32-26.33-3.22-39.5-4.84-3.26-.4-6.59-.45-9.76-1.2-1.54-.36-3.82-1.8-4-3C86.89,367.28,86.06,358.63,85,350c-1.23-9.91-2.63-19.8-3.79-29.71-.58-4.9-.93-9.85-1.16-14.78q-.65-14.14-1-28.3c-.4-16.26-.69-32.53-1-48.8,0-1.63,0-3.27,0-5.57,10.53-.63,20.67-1.54,30.84-1.78,33.7-.81,67.4-1.39,101.1-2.05C211.74,219,213.55,219,215.61,219Z" transform="translate(653 206)"/><path d="M233.52,398.11h153V557c-5.39,0-12,.25-18.64-.08-5.72-.29-11.39-1.41-17.11-1.86-10.19-.8-20.39-1.38-30.59-2q-22.95-1.5-45.9-3c-9.37-.63-18.73-1.43-28.1-1.92-2.83-.15-4.16-.81-4.29-4-.5-12-1.25-24.07-1.94-36.1q-1.48-25.7-3-51.4-1-16.8-2-33.6C234.52,414.93,234,406.86,233.52,398.11Z" transform="translate(653 206)"/><path d="M1146,137.76c0,16.1.1,31.19,0,46.27q-.41,50.92-1,101.83a11,11,0,0,1-.2,1.45c-9.42,0-18.79,0-28.17,0-5.48,0-11-.11-16.44-.31-17.53-.63-35.07-1.13-52.59-2.06-12.48-.66-24.95-1.78-37.39-3-8.15-.8-16.24-2.14-25.05-3.33a1002,1002,0,0,1,2-132.06,6.52,6.52,0,0,1,1.56-.49c17.43-.37,34.87-.34,52.28-1.16,18.59-.88,37.13-2.58,55.7-3.86,10.53-.73,21.06-1.35,31.59-2C1134.31,138.6,1140.36,138.15,1146,137.76Z" transform="translate(653 206)"/><path d="M709.77,266.31c-19.68-.78-39-1.49-58.27-2.33-12.7-.56-25.42-1-38.09-2-17.52-1.4-35-3.22-52.48-5.06-1.07-.11-2.59-1.87-2.84-3.08-1.84-9.11-3.38-18.27-5.08-27.41-2.33-12.5-4.36-25.07-7.17-37.47-4.67-20.63-9.84-41.14-14.85-61.69-1.43-5.84-3.1-11.63-4.59-17.46a28.7,28.7,0,0,1-.39-3.9c58.83,13.78,118.13,21.8,177.75,29.25A859.57,859.57,0,0,1,709.77,266.31Z" transform="translate(653 206)"/><path d="M396,566.71l31.57,2.08c.82.05,1.64.19,2.47.21l46.78,1c14.76.32,29.52.89,44.28.91,8.73,0,17.46-.84,26.56-1.33.14,2.12.32,3.56.32,5,0,20,.14,40,0,60-.13,15.43-.34,30.86-1.05,46.27C546.35,693,545,705.07,544,717.2c-.27,3.3-2,5.32-5.31,5.75-5.69.73-11.37,1.77-17.08,2-15.75.56-31.52,1.1-47.27,1-12.53-.11-25.07-1-37.58-1.95-9.64-.69-19.24-2-28.87-2.82-3.21-.26-3.75-2.11-3.85-4.57-.36-8.76-.58-17.53-1-26.29q-1.41-27.2-3-54.38c-.61-10.53-1.3-21.06-2-31.59-.65-10-1.34-20.06-2-30.09C395.9,572.05,396,569.89,396,566.71Z" transform="translate(653 206)"/><path d="M841-55.44,679.94-77.77,668-201.7h164.7c.44,4.91,1,9.78,1.28,14.66.75,14.86,1.31,29.74,2.05,44.6.58,11.54,1.29,23.07,2,34.61,1,15.64,2,31.27,3,46.91C841.08-59.44,841-58,841-55.44Z" transform="translate(653 206)"/><path d="M564.76,405.74H704.87c-.56,9.07-1.08,17.4-1.6,25.73,0,.65-.23,1.3-.25,2-.35,10.1-.7,20.19-1,30.29-.68,22.52-1.42,45-2,67.57-.23,9.35,0,18.7,0,28.88H557c0-6.26-.26-12.82.07-19.36.32-6.38,1.43-12.72,1.86-19.11.53-7.92.67-15.86,1.06-23.79q1.46-29.44,3-58.88c.31-6.1.66-12.2,1-18.3C564.25,416,564.48,411.25,564.76,405.74Z" transform="translate(653 206)"/><path d="M389,566.62c0,9.68-.32,19.29.07,28.86.77,18.81,1.9,37.61,3,56.41.59,10.54,1.31,21.07,2,31.61.66,10.37,1.34,20.74,2,31.11.1,1.63,0,3.27,0,6.34L255.39,702.19c-.83-9.33-1.53-18.17-2.41-27-1.24-12.41-2.66-24.8-3.88-37.21-.81-8.19-1.43-16.4-2.09-24.6q-2-25.1-4-50.21c-.16-2.14,0-4.31,0-7.15,3.61,0,7-.18,10.46,0,8.38.54,16.74,1.25,25.11,1.93q23.86,1.95,47.71,3.94c4.43.37,8.86.77,13.3,1,11.53.71,23.07,1.29,34.6,2.05C378.61,565.32,383,566,389,566.62Z" transform="translate(653 206)"/><path d="M841.17-201.78c1.7-.08,3.16-.21,4.63-.21,43.49,0,87,0,130.48-.1,3.82,0,5.7.84,6.18,4.88,1.35,11.36,3.27,22.66,4.49,34,3.62,33.79,1.54,67.72,2,101.59.11,7.58,0,7.51-7.72,7.59-29.43.3-58.86.91-88.29.88-13.54,0-27.07-1.14-40.59-2.05-1.2-.08-3.16-2.29-3.24-3.6-.6-9.92-.67-19.87-1.18-29.79-.89-17.47-2-34.94-3-52.41-.66-11.53-1.25-23.07-2-34.6-.51-7.71-1.31-15.4-1.94-23.1A25.72,25.72,0,0,1,841.17-201.78Z" transform="translate(653 206)"/><path d="M267,875.55c-.32-4.6-.81-9.31-.94-14-.42-14.59-.44-29.19-1.1-43.77-.69-15.14-1.82-30.27-3-45.38-1.19-15.74-2.61-31.46-4-47.18-.4-4.57-1-9.11-1.59-14.28L396.9,729.46c.37,8.32.39,16.6,1.17,24.8,2.53,26.57,3.82,53.22,2.66,79.85-.46,10.59-3.82,21.08-6.2,31.54-.31,1.36-2.51,2.77-4.12,3.29-22.68,7.32-46.06,8.74-69.69,8.09-8.65-.24-17.32.15-26-.09C285.67,876.7,276.61,876.06,267,875.55Z" transform="translate(653 206)"/><path d="M-46.52,516.92c-12.6-1.62-25.18-3.36-37.79-4.83-10.27-1.2-20.6-1.93-30.87-3.12-13-1.5-26-3.4-39-4.86-10.94-1.23-21.92-2.1-32.88-3.09-4.43-.4-8.91-.43-13.27-1.19a5.35,5.35,0,0,1-3.53-3.52c-1.88-14.3-3.86-28.6-5-43-1.18-14.82-1.84-29.72-1.95-44.58,0-6.09,2-12.2,3-18,15.3-6.29,30.26-12.67,45.4-18.57,13-5.05,26.32-8.87,40.37-9.16,11-.23,22.07-.28,33.09,0,7,.21,14.06,1.31,21.1,1.9,4.74.4,4.39,4.35,4.78,7.23,2.18,16.06,4.16,32.16,6,48.26,1.48,12.71,2.6,25.46,4.1,38.17s3.4,25.31,4.88,38C-47.3,503.26-47,509.93-46.52,516.92Z" transform="translate(653 206)"/><path d="M-31,683.82c0-19.43.26-38.4-.08-57.35-.31-17.36-1.08-34.72-2-52.07-.7-13.31-1.91-26.59-3-39.88-.21-2.7-.75-5.38-1.19-8.48L98.5,542.29c.5,4.43,1.21,8.8,1.46,13.19.77,13.52,1.43,27,2,40.58.72,16.19,1.57,32.38,2,48.57.33,13.89.07,27.79.07,42.52-4.71-.35-10-.93-15.38-1.12-12.42-.44-24.85-.82-37.28-1-26.41-.41-52.83-.69-79.24-1C-28.71,684-29.52,683.9-31,683.82Z" transform="translate(653 206)"/><path d="M-204.78,242.64V99.27H-65.4V242.64Z" transform="translate(653 206)"/><path d="M-37.46,517.59-55.31,366.88c7.31.79,13.93,1.38,20.51,2.23,9.24,1.19,18.45,2.57,27.67,3.89q16.26,2.33,32.51,4.7c9.87,1.43,19.73,2.9,29.61,4.29,7.61,1.07,15.28,1.84,22.83,3.23a6.27,6.27,0,0,1,4,4.18c1.65,10.84,2.82,21.76,4.2,32.64,1.61,12.66,3.38,25.3,4.88,38,.89,7.5,1.35,15.06,2.12,22.58,1.24,12.07,2.65,24.12,3.84,36.2.49,5,.6,10,.88,15Z" transform="translate(653 206)"/><path d="M377.74-58.6H238.38V-201.67H377.74Z" transform="translate(653 206)"/><path d="M1156-63.32c-4.79.46-9.34,1.08-13.91,1.29-16.19.76-32.4,1.21-48.58,2.09-14,.76-27.92,2.12-41.9,2.9-15.35.86-30.72,1.34-46.08,2.08-2.9.14-5.77.74-8.45,1.1-1-49.52,2.91-98.83-6.66-147.84h125.05c.5,6.22.93,12.43,1.52,18.61,1.06,11,4.9,21.19,9.51,31.15,7.06,15.24,15,30.19,20.6,46,4.21,11.83,5.37,24.75,7.88,37.19C1155.35-67.06,1155.64-65.32,1156-63.32Z" transform="translate(653 206)"/><path d="M968.66,847.25H829.24V704.38H968.66Z" transform="translate(653 206)"/><path d="M-213.19,99.86V242.69H-352.75V99.86Z" transform="translate(653 206)"/><path d="M-361.35,91.78H-500.73V-50.6h139.38Z" transform="translate(653 206)"/><path d="M229.64-59.22H90.27V-201.6H229.64Z" transform="translate(653 206)"/><path d="M81.77-201.65V-59.26H-57.61V-201.65Z" transform="translate(653 206)"/><path d="M-500.78,393.64V251.27H-361.4V393.64Z" transform="translate(653 206)"/><path d="M-509.35,393.77H-648.74V251.39h139.39Z" transform="translate(653 206)"/><path d="M-204.78-59.35V-201.74H-65.4V-59.35Z" transform="translate(653 206)"/><path d="M-352.78,91.64V-50.73H-213.4V91.64Z" transform="translate(653 206)"/><path d="M-213.23-201.65V-59.26H-352.61V-201.65Z" transform="translate(653 206)"/><path d="M-65.21-50.64V91.73H-204.59V-50.64Z" transform="translate(653 206)"/><path d="M81.65,91.78H-57.73V-50.6H81.65Z" transform="translate(653 206)"/><path d="M-500.79-59.37V-201.72h139.38V-59.37Z" transform="translate(653 206)"/><path d="M-509.36,91.79H-648.73V-50.59h139.37Z" transform="translate(653 206)"/><path d="M-361.22,100.35V242.74H-500.6V100.35Z" transform="translate(653 206)"/><path d="M-509.23,100.35V242.74H-648.61V100.35Z" transform="translate(653 206)"/><path d="M-648.79-59.36V-201.73h139.38V-59.36Z" transform="translate(653 206)"/><path d="M-648.78,544.64V402.27H-509.4V544.64Z" transform="translate(653 206)"/><path d="M820.78,704.24V846.73H681.56V705.43c2.61-.53,4.79-1.36,7-1.37q65-.11,129.95,0C819.11,704,819.75,704.14,820.78,704.24Z" transform="translate(653 206)"/><path d="M-352.81,394V250.18c46.46-.4,92.78,0,139.81-.21v5.56q0,58.73,0,117.45c0,.5,0,1,0,1.5-.22,8.93-1,9.52-9.45,12.76a106.43,106.43,0,0,1-40.91,6.93c-27.81-.6-55.64-.18-83.46-.18Z" transform="translate(653 206)"/><path d="M977.19,696.14V553.3h138.57V696.14Z" transform="translate(653 206)"/><path d="M1262.65,695.77H1124.26V553.39h138.39Z" transform="translate(653 206)"/><path d="M1115.78,704.36V846.73H977.4V704.36Z" transform="translate(653 206)"/><path d="M1262.73,846.78H1124.36V704.31h138.38Z" transform="translate(653 206)"/><path d="M843,418c0,8.42-.11,16.16,0,23.89.26,15.26-.24,30.59,1.18,45.75C846.47,511.84,843,535,834.11,559c-16.66.65-33.92,1.55-51.2,1.92-15.31.33-30.64.07-46,.07H707.45c0-9.46,0-17.68,0-25.9,0-1,.48-1.92.5-2.89.36-12.92.63-25.85,1-38.77.61-19.36,1.22-38.71,2-58.06.39-9.2,1.28-18.39,2-28.6C756.1,409.07,798.87,412.52,843,418Z" transform="translate(653 206)"/><path d="M672.75,854.79v140H533.35v-140Z" transform="translate(653 206)"/><path d="M230-50.64c0,1.62,0,2.93,0,4.24,0,34.64.42,69.3-.33,103.93-.16,7.43-3.43,15.47-7.44,21.86-2.11,3.37-8.83,4.08-13.61,5.52-9.32,2.8-18.74,5.3-28.14,7.84a15.53,15.53,0,0,1-4,.24q-16,0-32,0H90.39V-50.64Z" transform="translate(653 206)"/><path d="M344.76,67l28,159.2A1227.62,1227.62,0,0,0,222,211.31c0-9.88.2-18.81,0-27.72-.54-20-1.54-40.06-1.86-60.1-.19-12.08,3.22-23.68,8.3-34.46,1.38-2.92,6.55-4.53,10.3-5.74,7.88-2.55,16-4.19,24-6.65,15.48-4.8,31.07-9.07,47.35-9.58C321.83,66.69,333.67,67,344.76,67Z" transform="translate(653 206)"/><path d="M681.36,854.68H820.69V994.75H681.36Z" transform="translate(653 206)"/><path d="M829.22,994.65V855.26H968.6V994.65Z" transform="translate(653 206)"/><path d="M1262.64,544.75H1124v-5.6c0-32.5-.33-65,.21-97.49.15-9,2.91-18,4.47-27,.51-2.92,2.17-3.95,5.14-4.92,17.44-5.73,35.25-7.24,53.5-6.9,25,.47,50,.12,75.3.12Z" transform="translate(653 206)"/><path d="M1124.35,855.23h138.39V994.61H1124.35Z" transform="translate(653 206)"/><path d="M977.23,994.65V855.26h138.38V994.65Z" transform="translate(653 206)"/><path d="M969,553v4.6q0,67,.06,133.92c0,3.9-.75,5.63-5.21,5.58-44.24-.49-88.48-.77-132.72-1.12a21.26,21.26,0,0,1-2.14-.3v-5.21c0-27.65-.58-55.32.32-82.94.31-9.51,4.59-18.84,6.53-28.36,2.07-10.13,6.72-15.89,18.09-16.93,14.24-1.31,28.2-5.72,42.44-7,18.94-1.67,38-1.62,57-2.23C958.4,552.86,963.37,553,969,553Z" transform="translate(653 206)"/><path d="M224.68,398.24a29.75,29.75,0,0,1,1.26,5.5c.44,10.42.57,20.86,1.09,31.28.88,17.63,2,35.26,3,52.88.62,10.53,1.24,21.07,2,31.59.51,7,1.33,14.06,1.92,21.09.17,2,0,3.94,0,7L107.06,535.78,90.46,387.36C134.79,393.75,179.52,396.44,224.68,398.24Z" transform="translate(653 206)"/><path d="M113,687.26c0-6.9.16-14,0-21.15-.59-21.86-1.2-43.73-2-65.59-.41-10.88-1.19-21.74-2-32.6-.58-8-1.45-16-2.15-23.7l127.74,11.55c.46,5,1.06,10.34,1.43,15.73,1.06,15.46,1.88,30.94,3.07,46.39,1.13,14.58,2.52,29.14,4,43.69,1.18,11.74,2.64,23.45,3.92,35.19a18.86,18.86,0,0,1-.15,3.39Z" transform="translate(653 206)"/><path d="M555,568.72H699c0,7.52.84,15.71-.19,23.67a328.66,328.66,0,0,1-6.92,36.49c-2.72,11-7,21.68-10,32.67-3.17,11.77-5.57,23.74-8.43,36.15C632.91,700,593.2,713.37,552,720.57c.35-4.92.84-9.66,1-14.4.73-21.53,1.65-43.07,1.95-64.61C555.26,617.64,555,593.71,555,568.72Z" transform="translate(653 206)"/><path d="M851.51,276c10.69.66,21.2,1.32,31.71,1.95,6.26.38,12.53.61,18.79,1.08,17.06,1.28,34.13,2.53,51.16,4.06,7,.63,13.89,2.16,20.88,2.81,3.22.3,3.81,2,3.93,4.48.37,7.93.43,15.88,1.07,23.78,1.12,13.74,2.64,27.45,3.87,41.19.81,9,1.4,18.05,2.1,27.08q1.48,19.19,3,38.38c.09,1.15,0,2.31,0,3.82a24.75,24.75,0,0,1-4,.36q-19.2-1.41-38.38-2.93c-8.2-.65-16.41-1.17-24.58-2.09-10.89-1.23-21.75-2.75-32.62-4.23-8.58-1.17-17.13-2.51-25.71-3.7-3.25-.45-6.58-.45-9.76-1.16-1.16-.26-2-2-3-3-.17-.19,0-.65,0-1-.33-25.08-.82-50.17-.93-75.25-.05-12.09.5-24.19,1-36.28C850.29,289.07,851,282.85,851.51,276Z" transform="translate(653 206)"/><path d="M996.46,426.41c-.53-9.52-.8-17.95-1.5-26.34-1.15-13.75-2.64-27.47-3.87-41.21-.81-9-1.41-18.06-2.1-27.09q-1.5-19.7-3-39.41c-.12-1.64,0-3.29,0-4.72,12.72,1.14,25.07,2.49,37.46,3.31,18.46,1.22,36.93,2.16,55.41,3,11.26.53,22.54.63,33.8,1,10.57.39,21.14.93,31.41,1.4,0,12.48.36,25-.13,37.54-.31,8-1,16.16-3.08,23.81-3,10.93-7.45,21.47-11.34,32.16-.83,2.29-1.91,4.5-2.83,6.76-1.91,4.65-4.4,8-10,9.47-22.81,6.12-45.46,12.89-69,15.81-10.59,1.32-21.25,2.09-31.89,3C1009.47,425.54,1003.07,425.93,996.46,426.41Z" transform="translate(653 206)"/><path d="M559.08,265.27c7,.6,13.61,1.12,20.24,1.77,5.71.57,11.38,1.52,17.1,1.9,8.25.55,16.52.73,24.78,1.06,16.52.67,33.05,1.25,49.57,2,10.37.49,20.73,1.24,31.08,2,2.58.19,5.12.85,8.48,1.43-.44,6.36-1.1,12.73-1.29,19.11-.46,15.75-.57,31.52-1.08,47.27-.49,15-1.24,30.05-2,45.07-.17,3.43-.87,6.83-1.39,10.68H565C565.13,353.74,566,309.61,559.08,265.27Z" transform="translate(653 206)"/><path d="M1155.63,129.13c1.15-13.73,2.25-26.5,3.29-39.27.42-5.09.8-10.19,1.05-15.29.71-14.36,1.42-28.72,2-43.08.74-18.19,1.34-36.38,2-54.57.29-7.6.78-15.19.93-22.79.05-2.86-.62-5.74-1-8.7,33.16-1.65,65.83-1.82,99,1.69v4.95c0,54.63-.06,109.25.1,163.88,0,4.84-1.42,5.94-6.16,6.21-14.92.88-29.79,2.54-44.69,3.79-5.92.5-11.86.78-17.79,1-9.59.4-19.19.63-28.78,1.05C1162.62,128.17,1159.59,128.69,1155.63,129.13Z" transform="translate(653 206)"/><path d="M386,994.64c0-26-1-51.7.47-77.26.62-10.82,6.36-21.36,9.82-32,.3-.92,1.17-1.7,1.32-2.62,1-6.06,4.83-8.43,10.6-10,14.29-3.83,28.25-8.86,42.55-12.64a155.39,155.39,0,0,1,45.41-5.18c9.44.33,18.9.06,28.59.06V994.64Z" transform="translate(653 206)"/><path d="M-532.4,690c3.54-16.92,6.53-33.42,10.52-49.68,3.61-14.67,8.64-29,12.44-43.61,3.68-14.17,6.57-28.54,9.92-43.29,4.66-.38,10.54-.76,16.39-1.34,16.05-1.6,31.11-6.92,46.06-12.55,16.9-6.37,33.74-12.88,50.61-19.31a4.56,4.56,0,0,1,1.25,0c-1,5.8-2,11.5-3,17.21a114.41,114.41,0,0,0-1.77,12.11c-.53,9.59-.84,19.19-1,28.79-.41,19.09-.81,38.18-1,57.28-.16,17.24,0,34.48,0,52.42h-6.54c-31.65,0-63.3-.16-95,.09-10.53.08-21.06,1.26-31.59,1.88C-527.22,690.1-529.37,690-532.4,690Z" transform="translate(653 206)"/><path d="M70.35,214.75Q38,223.92,5.63,233.09c-19.23,5.42-38.35,11.51-58.76,9.92-1.45-.11-2.91,0-4.61,0V99.37H81.77c.07,1.55.22,3.15.22,4.76,0,13.5-.65,27,.17,40.48,1.06,17.43-2.52,33.89-7.52,50.32C72.65,201.46,71.71,208.31,70.35,214.75Z" transform="translate(653 206)"/><path d="M-648.66,854c17.66,0,35.13-1.52,52.21.39,21.26,2.37,42.54,6.17,62.53,14.64a5.36,5.36,0,0,1,2.84,3.18c5.45,25,11.12,49.88,15.95,75,2.5,13,3.46,26.26,5.15,39.4.33,2.58.8,5.13,1.27,8.1H-648.66Z" transform="translate(653 206)"/><path d="M-648.78,696V553.34h140.4c-1.38,7.35-2.27,14.59-4.15,21.56-5.75,21.35-12.42,42.47-17.68,63.93-3.8,15.49-6,31.37-8.74,47.1-.56,3.21-1.84,5.59-5.12,5.94-10.61,1.16-21.23,2.65-31.88,3-22.25.72-44.52.78-66.78,1.11C-644.56,696-646.39,696-648.78,696Z" transform="translate(653 206)"/><path d="M550.64,729.36c41-6.76,80.86-20.26,122.71-23.61V847.16H533.66c0-9.39-.43-19.46.13-29.48a187.45,187.45,0,0,1,3.29-25.29c2.42-12.46,5.57-24.77,8.28-37.17C547.21,746.76,548.83,738.27,550.64,729.36Z" transform="translate(653 206)"/><path d="M-500.76,544.56V402.25H-361v5.22c0,17.33-.78,34.7.24,52,.82,13.89-4.76,24.8-11.09,36.32-5.39,9.82-12.47,15.41-23,18.92-21.29,7.08-42,15.82-63.25,23.14C-472.24,542.7-491.17,546.53-500.76,544.56Z" transform="translate(653 206)"/><path d="M353.4,59.59c-.49-4.79-.9-9.21-1.4-13.62-1.66-14.65,5.43-26.26,13.17-37.57,6.36-9.29,13.07-18.33,19.47-27.6a9.48,9.48,0,0,0,1.31-5c.13-8.66.06-17.32.06-26.39,1.36-.14,2.61-.37,3.87-.38,4.66,0,9.4-.54,14,.07,18.32,2.44,34.33-4.48,50.36-11.69,11.71-5.26,23.53-10.26,34.79-15.16,0,7.85-.5,15.46.1,23,1.34,16.84,2.68,33.72,5,50.45,2.74,19.53,6.24,39,10,58.34,2.41,12.44,5.86,24.68,8.8,37a16,16,0,0,1,0,3C460,80.58,407.64,65.93,353.4,59.59Z" transform="translate(653 206)"/><path d="M99.49,994.78H-54c0-6.77-.26-13.31.07-19.83s1.4-12.73,1.87-19.11c.79-10.69,1.27-21.4,2.07-32.09q1.32-17.46,3.09-34.88a4.28,4.28,0,0,1,2.66-2.76A30.35,30.35,0,0,1-37,885c16.19-.73,32.39-1.36,48.59-2,7.6-.32,15.19-.79,22.8-1,17.76-.41,35.52-.62,53.28-1.08,4.89-.13,9.77-.85,15.62-1.38-.38,5.85-.8,10.88-1,15.93s-.2,10.3-.29,15.45c-.33,19.26-.56,38.52-1,57.78C100.74,977.29,100,985.84,99.49,994.78Z" transform="translate(653 206)"/><path d="M386.25-58.17V-201.76H525v5.26c0,17.5-.38,35,.18,52.48.24,7.49-4.47,12.19-7.64,17.66-7.1,12.27-14.84,24.19-22.61,36.07-1.16,1.77-3.76,2.8-5.88,3.71-16.77,7.17-33.93,13.53-50.3,21.5C421.86-56.86,404.32-57.81,386.25-58.17Z" transform="translate(653 206)"/><path d="M-58,250c4.91,0,9.09-.31,13.21.05,15.4,1.36,30-2.47,44.59-6.48,20.07-5.53,40.05-11.37,60.1-17,3.09-.86,6.32-1.22,10.1-1.93,0,8.27-.18,15.9,0,23.52.56,19.87.77,39.78,2.13,59.6,1.27,18.48,3.81,36.88,5.87,55.3.5,4.49,1.34,8.94,2.07,13.68l-137.24-19c-1-15-2.6-29.78-2.68-44.57-.1-17.22,1.18-34.45,1.8-51.68C-57.89,257.84-58,254.2-58,250Z" transform="translate(653 206)"/><path d="M107.64,994.15c.42-6.55.86-13.43,1.29-20.3,0-.66.05-1.33.06-2,.34-18.26.75-36.53,1-54.79.15-12.09,0-24.19,0-36.68,2.58-.18,4-.38,5.42-.36,24.76.31,49.53.6,74.29,1,10.44.17,20.87.56,31.3,1,12.51.52,25,1.21,37.07,1.8,0,12.77,0,25,0,37.21,0,6.16.47,12.38-.18,18.48-1.28,12.18-2.59,24.41-5.09,36.38-1.26,6-5,11.58-8,17.2a4.65,4.65,0,0,1-3.55,1.82q-66,.1-132,0C109,994.9,108.76,994.65,107.64,994.15Z" transform="translate(653 206)"/><path d="M1262.64-62.51l-98.53-1.56c-1.4-19.4-5.25-38.85-13.16-57.32-3.14-7.33-6.79-14.44-10.43-21.54-7.47-14.56-14-29.46-16.27-45.82-.57-4.08-.09-8.3-.09-12.86h138.48Z" transform="translate(653 206)"/><path d="M713,137.91l135.33,10.65c-.38,7.43-.83,16-1.26,24.5-.06,1.16-.05,2.33-.08,3.49-.33,14.76-.53,29.52-1,44.27-.49,14.2-1.32,28.39-1.94,42.58-.14,3.13-1.19,4.67-4.73,4.66-35.64-.11-71.28,0-106.92-.13-4.57,0-9.14-.88-14.15-1.39-.07-1.44-.2-3-.2-4.65,0-14,.12-28,0-42-.15-12.1-.28-24.21-1.08-36.27-.9-13.59-2.57-27.12-3.85-40.69C712.86,141.18,713,139.37,713,137.91Z" transform="translate(653 206)"/><path d="M718.48,275.69H842V409.11c-5.73-.46-11.08-.77-16.39-1.34-7.81-.83-15.59-2-23.41-2.74q-22.32-2.15-44.67-4c-6.08-.51-12.19-.74-18.29-1.06-8.56-.45-17.13-.86-26-1.31.42-9.6.83-19.1,1.27-28.59,0-1,.48-1.92.51-2.89.36-12.76.67-25.51,1-38.27.32-11.43.56-22.85,1-34.27C717.31,288.28,718,281.9,718.48,275.69Z" transform="translate(653 206)"/><path d="M1152.45,288l2.1-150.43c5.4-.57,10.09-1.28,14.79-1.52,9.42-.48,18.87-.47,28.28-1.1,17.07-1.14,34.13-2.61,51.19-3.92,4.55-.35,9.1-.62,14.18-1v5.19q0,61,0,121.93c0,2.85-.62,4.38-3.35,6.11a138.65,138.65,0,0,1-55,20.42C1187.79,286.14,1170.62,286.59,1152.45,288Z" transform="translate(653 206)"/><path d="M-533.24,860.66c-37.3-16.64-76.41-13.78-115.46-13.52V704.91l107.78-3.61C-545.43,753.59-541.37,806.58-533.24,860.66Z" transform="translate(653 206)"/><path d="M-214.77,994.67l5.49-99.63c6.75-.37,12.79-.78,18.85-1,17.36-.71,34.72-1.26,52.08-2.06,9.87-.46,19.73-1.33,29.6-1.95,16.79-1,33.59-2,50.38-3.08a16.44,16.44,0,0,0,3.23-1l-8.24,108.73Z" transform="translate(653 206)"/><path d="M707,568H830c-2.44,8.31-5.2,17.42-7.74,26.59a31.45,31.45,0,0,0-1.19,8.21c-.08,29-.05,58-.05,87v5.83H682.63c1.28-6.58,2.06-13.17,3.88-19.47,4.59-15.94,9.82-31.7,14.45-47.63,4.9-16.86,6.58-34.17,6-51.71C706.93,574,707,571.26,707,568Z" transform="translate(653 206)"/><path d="M-377,889.89c9.49.6,19.49,1.22,29.48,1.87,5.75.38,11.5,1,17.26,1.2,11.42.45,22.85.82,34.28,1,25.25.41,50.5.69,75.75,1,1,0,1.93.18,2.55.24l-5.16,99.54c-1.06.05-2.66.19-4.26.19-44.64,0-89.27,0-133.91.09-3.92,0-6-.65-6.6-5-1.61-12.47-3.9-24.86-5.35-37.35-1.67-14.35-2.89-28.77-4-43.18C-377.35,903.31-377,897-377,889.89Z" transform="translate(653 206)"/><path d="M659.59-201.65,671.17-79.53c-16.29-2.44-33-5.12-49.76-7.39q-18.27-2.47-36.67-4C567-92.5,549.31-94.11,531.56-94.8c-8.24-.32-16.56,1.46-25.68,2.37,4.58-7.26,9-14.34,13.5-21.34,3.36-5.21,7.28-10.12,10.14-15.58a28,28,0,0,0,3.33-12c.33-20,.15-39.94.15-60.27Z" transform="translate(653 206)"/><path d="M1118.35,413.94c-.8,12.65-2.11,24.87-2.24,37.1-.33,29.32-.11,58.64-.11,88v5.7H977.26a143.62,143.62,0,0,1,4.17-45.56c4.08-16.25,8.41-32.43,12.25-48.73,1.2-5.08,1.15-10.44,1.75-16.41C1037.55,434.14,1078.76,426.89,1118.35,413.94Z" transform="translate(653 206)"/><path d="M-204.73,250.19H-64.55c-.64,10.07-1.19,19.89-1.93,29.7-.27,3.58-1.27,7.1-1.47,10.68a292.64,292.64,0,0,0,1.89,53.16c.53,4.2.52,8.46.8,13.35-24.1-2.05-48.18-5.19-72.26-.82-23.56,4.27-44.78,15.23-67.22,24.22Z" transform="translate(653 206)"/><path d="M978.9,147.84c-3.53,37.93-2.95,76.24-2.84,114.54,0,5.06.76,10.11,1.09,14.33l-125.57-9.39c.13-2.38.32-4.94.41-7.51q1-28.05,2-56.1c.34-9.6.59-19.2,1-28.8.39-8.74,1-17.48,1.49-27.07Z" transform="translate(653 206)"/><path d="M845.35,555.94c2.22-10.6,5.15-20.35,6.1-30.29,1.11-11.75.51-23.66.64-35.51,0-.83-.06-1.66-.08-2.49q-.5-27.63-1-55.26c-.07-4.24,0-8.48,0-13.48,44.53,6.07,89.68,13.27,136.81,14.32-1.77,9.75-3.07,19.23-5.26,28.49-3.48,14.7-8,29.16-11.17,43.93-1.79,8.46-1.76,17.32-2.33,26-.28,4.27,0,8.57,0,13.6C927.14,543.8,886,545.58,845.35,555.94Z" transform="translate(653 206)"/><path d="M404.64,729.87c8.39.41,15.94.65,23.47,1.18,6.88.49,13.72,1.69,20.6,1.87,20.58.54,41.17,1.08,61.75.92,9-.07,17.91-1.84,26.86-2.79,1.3-.14,2.64,0,4.68,0-3.82,16.77-7.81,33.12-11.19,49.6a232.37,232.37,0,0,0-4.63,31c-.79,11.85-.18,23.8-.18,35.87-21.93.54-42.85-.76-63.2,2.06-19.76,2.74-38.93,9.7-58.65,14.87,7.43-23.78,4.69-48.46,4.66-72.9,0-17.12-1.78-34.25-2.85-51.37C405.76,736.92,405.15,733.75,404.64,729.87Z" transform="translate(653 206)"/><path d="M-386.29,889.54c3,35.16,3.68,70.38,11,105.18h-125.8c-1.07-41.39-13.17-80.78-21.1-121.73C-477.38,884.24-431.88,885.91-386.29,889.54Z" transform="translate(653 206)"/><path d="M215.4,211c-18.39,0-35.7-.25-53,.06-21.53.4-43.05,1.18-64.57,2-6,.23-12,1.15-19.15,1.86,1.7-7.25,2.92-14.36,5.07-21.18,4.23-13.4,6.91-26.84,6.39-41.07-.64-17.29-.15-34.62-.15-52.36,1.62-.11,3-.29,4.47-.3,18.66,0,37.31-.06,56,0a107.51,107.51,0,0,1,10.8,1c15.06,1.61,29.26-2.57,43.52-6.37C209,93.51,213.18,92.35,218,91c-1.09,3.94-2.41,7.53-3,11.23a197.45,197.45,0,0,0-2.86,21.33c-.49,8.3-.33,16.66-.07,25,.52,16.7,1.24,33.39,2,50.08C214.22,202.55,214.88,206.42,215.4,211Z" transform="translate(653 206)"/><path d="M238-50.8H378c0,8.62.2,17.07-.16,25.49-.08,1.81-2.09,3.57-3.28,5.3-8,11.7-16.32,23.22-24,35.14-7.44,11.54-7.31,24.61-6.13,37.71.17,1.9.48,3.78.77,6.09-38.81-4.51-74.84,5.26-111.34,17.91.6-2.85.47-4.84,1.37-6.08,3.44-4.72,2.8-10,2.8-15.28Q238,5.26,238-45Z" transform="translate(653 206)"/><path d="M-217.58,394.09c-4.34,35.79,2.43,69.72,5.17,104.22-51.41-3.58-103.13-7.56-154.69,6.26,3.34-5.77,7.14-10.88,9.39-16.59,2.35-6,4.35-12.47,4.5-18.79.54-22.14.21-44.29.21-67.18h5.48c25.83,0,51.66-.16,77.49.06C-252.38,402.2-234.8,402.36-217.58,394.09Z" transform="translate(653 206)"/><path d="M378,994.89H254.92c2.46-6.85,5.42-13.54,7.19-20.53a101.16,101.16,0,0,0,2.8-19.87c1.12-23.3,1.86-46.62,2.76-70.43,40.22.18,80.89,4.87,121.95-5.62-2.6,6.85-4.72,12.56-6.93,18.23a73.88,73.88,0,0,0-4.75,27.91c.2,21.49.06,43,.06,64.46Z" transform="translate(653 206)"/><path d="M1262.7,395h-35.31c-15.66,0-31.32.32-47-.09a141.65,141.65,0,0,0-46.25,6.14c7.43-17.31,15.66-33.39,16.81-51.56,1.14-18,1.94-35.94,2.91-54.39,37.42.06,74.91-2.22,108.8-23.64Z" transform="translate(653 206)"/></svg>